<svg width="195" height="195" viewBox="0 0 195 195" fill="none" xmlns="http://www.w3.org/2000/svg">
<rect width="195" height="195" rx="40" fill="black"/>
<path d="M87 123C84.2386 123 82 125.239 82 128C82 130.761 84.2386 133 87 133H107C109.761 133 112 130.761 112 128C112 125.239 109.761 123 107 123H87Z" fill="white"/>
<path fill-rule="evenodd" clip-rule="evenodd" d="M122 48H72C66.4772 48 62 52.4772 62 58V138C62 143.523 66.4772 148 72 148H122C127.523 148 132 143.523 132 138V58C132 52.4772 127.523 48 122 48ZM122 58H112C112 63.5228 107.523 68 102 68H92C86.4772 68 82 63.5228 82 58H72L72 138H122V58Z" fill="white"/>
</svg>
