<svg width="195" height="195" viewBox="0 0 195 195" fill="none" xmlns="http://www.w3.org/2000/svg">
<rect width="195" height="195" rx="40" fill="black"/>
<path fill-rule="evenodd" clip-rule="evenodd" d="M108 73V63C108 57.4772 103.523 53 98 53H58C52.4772 53 48 57.4771 48 63V103C48 108.523 52.4772 113 58 113L78 113L78 133C78 138.523 82.4772 143 88 143L138 143C143.523 143 148 138.523 148 133L148 83C148 77.4772 143.523 73 138 73L108 73ZM98 73L88 73C82.4772 73 78 77.4771 78 83L78 103L58 103L58 63L98 63V73ZM138 133L88 133L88 83L138 83L138 133Z" fill="white"/>
</svg>
