<svg width="195" height="195" viewBox="0 0 195 195" fill="none" xmlns="http://www.w3.org/2000/svg">
<rect width="195" height="195" rx="40" fill="black"/>
<path d="M73 118C73 120.761 75.2386 123 78 123C80.7614 123 83 120.761 83 118V108C83 105.239 80.7614 103 78 103C75.2386 103 73 105.239 73 108V118Z" fill="white"/>
<path d="M98 123C95.2386 123 93 120.761 93 118V78C93 75.2386 95.2386 73 98 73C100.761 73 103 75.2386 103 78V118C103 120.761 100.761 123 98 123Z" fill="white"/>
<path d="M113 118C113 120.761 115.239 123 118 123C120.761 123 123 120.761 123 118V88C123 85.2386 120.761 83 118 83C115.239 83 113 85.2386 113 88V118Z" fill="white"/>
<path fill-rule="evenodd" clip-rule="evenodd" d="M48 63C48 57.4772 52.4772 53 58 53H138C143.523 53 148 57.4772 148 63V133C148 138.523 143.523 143 138 143H58C52.4772 143 48 138.523 48 133V63ZM58 63H138V133H58V63Z" fill="white"/>
</svg>
