<svg width="92" height="93" viewBox="0 0 92 93" fill="none" xmlns="http://www.w3.org/2000/svg">
<rect x="0.195312" y="0.5" width="91.7843" height="91.7843" rx="23.7043" transform="rotate(0.118781 0.195312 0.5)" fill="white"/>
<path d="M24.9603 45.4763C25.4585 42.9143 25.7076 41.6333 26.302 40.6342C27.0946 39.3021 28.3259 38.2872 29.7848 37.7634C30.8789 37.3706 32.1839 37.3706 34.794 37.3706L57.2371 37.3706C59.8471 37.3706 61.1521 37.3706 62.2463 37.7634C63.7052 38.2872 64.9364 39.3021 65.729 40.6342C66.3235 41.6333 66.5726 42.9143 67.0707 45.4763V45.4763C67.7766 49.1064 68.1295 50.9214 67.7613 52.3713C67.2705 54.3046 65.9412 55.9172 64.1372 56.7681C62.7842 57.4062 60.9351 57.4062 57.2371 57.4062H34.794C31.0959 57.4062 29.2469 57.4062 27.8939 56.7681C26.0899 55.9172 24.7606 54.3046 24.2697 52.3713C23.9016 50.9214 24.2545 49.1064 24.9603 45.4763V45.4763Z" fill="url(#paint0_linear_127_1206)"/>
<g filter="url(#filter0_b_127_1206)">
<circle cx="46.3047" cy="33.3411" r="12.6485" fill="#BFB5FF" fill-opacity="0.6"/>
<circle cx="46.3047" cy="33.3411" r="12.4955" stroke="url(#paint1_linear_127_1206)" stroke-width="0.305948"/>
</g>
<g filter="url(#filter1_b_127_1206)">
<path d="M25.2656 62.3111C25.2656 68.0507 29.9185 72.7036 35.6581 72.7036L56.443 72.7036C62.1826 72.7036 66.8355 68.0508 66.8355 62.3112V62.3112C66.8355 54.6583 60.6276 48.4545 52.9748 48.4545C48.0367 48.4545 44.0645 48.4545 39.1263 48.4545C31.4735 48.4545 25.2656 54.6583 25.2656 62.3111V62.3111Z" fill="#BFB5FF" fill-opacity="0.6"/>
<path d="M35.6581 72.5506L56.443 72.5506C62.0981 72.5506 66.6825 67.9663 66.6825 62.3112C66.6825 54.7429 60.5432 48.6075 52.9748 48.6075L52.9459 48.6075L52.917 48.6075L52.8881 48.6075L52.8592 48.6075L52.8304 48.6075L52.8016 48.6075L52.7728 48.6075L52.744 48.6075L52.7153 48.6075L52.6866 48.6075L52.6578 48.6075L52.6292 48.6075L52.6005 48.6075L52.5719 48.6075L52.5432 48.6075L52.5146 48.6075L52.486 48.6075L52.4575 48.6075L52.4289 48.6075L52.4004 48.6075L52.3719 48.6075L52.3434 48.6075L52.315 48.6075L52.2865 48.6075L52.2581 48.6075L52.2297 48.6075L52.2014 48.6075L52.173 48.6075L52.1447 48.6075L52.1163 48.6075L52.088 48.6075L52.0598 48.6075L52.0315 48.6075L52.0032 48.6075L51.975 48.6075L51.9468 48.6075L51.9186 48.6075L51.8905 48.6075L51.8623 48.6075L51.8342 48.6075L51.8061 48.6075L51.778 48.6075L51.7499 48.6075L51.7219 48.6075L51.6938 48.6075L51.6658 48.6075L51.6378 48.6075L51.6098 48.6075L51.5819 48.6075L51.5539 48.6075L51.526 48.6075L51.4981 48.6075L51.4702 48.6075L51.4423 48.6075L51.4145 48.6075L51.3866 48.6075L51.3588 48.6075L51.331 48.6075L51.3032 48.6075L51.2754 48.6075L51.2477 48.6075L51.2199 48.6075L51.1922 48.6075L51.1645 48.6075L51.1368 48.6075L51.1091 48.6075L51.0815 48.6075L51.0539 48.6075L51.0262 48.6075L50.9986 48.6075L50.971 48.6075L50.9435 48.6075L50.9159 48.6075L50.8884 48.6075L50.8608 48.6075L50.8333 48.6075L50.8058 48.6075L50.7783 48.6075L50.7509 48.6075L50.7234 48.6075L50.696 48.6075L50.6686 48.6075L50.6412 48.6075L50.6138 48.6075L50.5864 48.6075L50.559 48.6075L50.5317 48.6075L50.5044 48.6075L50.4771 48.6075L50.4498 48.6075L50.4225 48.6075L50.3952 48.6075L50.3679 48.6075L50.3407 48.6075L50.3135 48.6075L50.2862 48.6075L50.259 48.6075L50.2319 48.6075L50.2047 48.6075L50.1775 48.6075L50.1504 48.6075L50.1232 48.6075L50.0961 48.6075L50.069 48.6075L50.0419 48.6075L50.0148 48.6075L49.9877 48.6075L49.9607 48.6075L49.9336 48.6075L49.9066 48.6075L49.8796 48.6075L49.8526 48.6075L49.8256 48.6075L49.7986 48.6075L49.7716 48.6075L49.7447 48.6075L49.7177 48.6075L49.6908 48.6075L49.6639 48.6075L49.637 48.6075L49.6101 48.6075L49.5832 48.6075L49.5563 48.6075L49.5295 48.6075L49.5026 48.6075L49.4758 48.6075L49.4489 48.6075L49.4221 48.6075L49.3953 48.6075L49.3685 48.6075L49.3417 48.6075L49.315 48.6075L49.2882 48.6075L49.2615 48.6075L49.2347 48.6075L49.208 48.6075L49.1813 48.6075L49.1545 48.6075L49.1278 48.6075L49.1012 48.6075L49.0745 48.6075L49.0478 48.6075L49.0211 48.6075L48.9945 48.6075L48.9679 48.6075L48.9412 48.6075L48.9146 48.6075L48.888 48.6075L48.8614 48.6075L48.8348 48.6075L48.8082 48.6075L48.7816 48.6075L48.7551 48.6075L48.7285 48.6075L48.702 48.6075L48.6754 48.6075L48.6489 48.6075L48.6224 48.6075L48.5958 48.6075L48.5693 48.6075L48.5428 48.6075L48.5163 48.6075L48.4899 48.6075L48.4634 48.6075L48.4369 48.6075L48.4105 48.6075L48.384 48.6075L48.3576 48.6075L48.3311 48.6075L48.3047 48.6075L48.2783 48.6075L48.2519 48.6075L48.2255 48.6075L48.1991 48.6075L48.1727 48.6075L48.1463 48.6075L48.1199 48.6075L48.0935 48.6075L48.0672 48.6075L48.0408 48.6075L48.0145 48.6075L47.9881 48.6075L47.9618 48.6075L47.9355 48.6075L47.9091 48.6075L47.8828 48.6075L47.8565 48.6075L47.8302 48.6075L47.8039 48.6075L47.7776 48.6075L47.7513 48.6075L47.725 48.6075L47.6987 48.6075L47.6725 48.6075L47.6462 48.6075L47.6199 48.6075L47.5937 48.6075L47.5674 48.6075L47.5412 48.6075L47.5149 48.6075L47.4887 48.6075L47.4625 48.6075L47.4362 48.6075L47.41 48.6075L47.3838 48.6075L47.3576 48.6075L47.3314 48.6075L47.3052 48.6075L47.279 48.6075L47.2528 48.6075L47.2266 48.6075L47.2004 48.6075L47.1742 48.6075L47.148 48.6075L47.1218 48.6075L47.0957 48.6075L47.0695 48.6075L47.0433 48.6075L47.0172 48.6075L46.991 48.6075L46.9648 48.6075L46.9387 48.6075L46.9125 48.6075L46.8864 48.6075L46.8602 48.6075L46.8341 48.6075L46.8079 48.6075L46.7818 48.6075L46.7557 48.6075L46.7295 48.6075L46.7034 48.6075L46.6773 48.6075L46.6511 48.6075L46.625 48.6075L46.5989 48.6075L46.5728 48.6075L46.5467 48.6075L46.5205 48.6075L46.4944 48.6075L46.4683 48.6075L46.4422 48.6075L46.4161 48.6075L46.39 48.6075L46.3638 48.6075L46.3377 48.6075L46.3116 48.6075L46.2855 48.6075L46.2594 48.6075L46.2333 48.6075L46.2072 48.6075L46.1811 48.6075L46.155 48.6075L46.1289 48.6075L46.1028 48.6075L46.0767 48.6075L46.0506 48.6075L46.0245 48.6075L45.9984 48.6075L45.9723 48.6075L45.9461 48.6075L45.92 48.6075L45.8939 48.6075L45.8678 48.6075L45.8417 48.6075L45.8156 48.6075L45.7895 48.6075L45.7634 48.6075L45.7373 48.6075L45.7112 48.6075L45.6851 48.6075L45.6589 48.6075L45.6328 48.6075L45.6067 48.6075L45.5806 48.6075L45.5545 48.6075L45.5284 48.6075L45.5022 48.6075L45.4761 48.6075L45.45 48.6075L45.4239 48.6075L45.3977 48.6075L45.3716 48.6075L45.3455 48.6075L45.3193 48.6075L45.2932 48.6075L45.267 48.6075L45.2409 48.6075L45.2148 48.6075L45.1886 48.6075L45.1624 48.6075L45.1363 48.6075L45.1101 48.6075L45.084 48.6075L45.0578 48.6075L45.0316 48.6075L45.0055 48.6075L44.9793 48.6075L44.9531 48.6075L44.9269 48.6075L44.9007 48.6075L44.8746 48.6075L44.8484 48.6075L44.8222 48.6075L44.796 48.6075L44.7698 48.6075L44.7435 48.6075L44.7173 48.6075L44.6911 48.6075L44.6649 48.6075L44.6387 48.6075L44.6124 48.6075L44.5862 48.6075L44.5599 48.6075L44.5337 48.6075L44.5074 48.6075L44.4812 48.6075L44.4549 48.6075L44.4287 48.6075L44.4024 48.6075L44.3761 48.6075L44.3498 48.6075L44.3235 48.6075L44.2972 48.6075L44.2709 48.6075L44.2446 48.6075L44.2183 48.6075L44.192 48.6075L44.1657 48.6075L44.1393 48.6075L44.113 48.6075L44.0867 48.6075L44.0603 48.6075L44.0339 48.6075L44.0076 48.6075L43.9812 48.6075L43.9548 48.6075L43.9285 48.6075L43.9021 48.6075L43.8757 48.6075L43.8493 48.6075L43.8228 48.6075L43.7964 48.6075L43.77 48.6075L43.7436 48.6075L43.7171 48.6075L43.6907 48.6075L43.6642 48.6075L43.6377 48.6075L43.6113 48.6075L43.5848 48.6075L43.5583 48.6075L43.5318 48.6075L43.5053 48.6075L43.4788 48.6075L43.4523 48.6075L43.4257 48.6075L43.3992 48.6075L43.3726 48.6075L43.3461 48.6075L43.3195 48.6075L43.2929 48.6075L43.2663 48.6075L43.2398 48.6075L43.2131 48.6075L43.1865 48.6075L43.1599 48.6075L43.1333 48.6075L43.1066 48.6075L43.08 48.6075L43.0533 48.6075L43.0267 48.6075L43 48.6075L42.9733 48.6075L42.9466 48.6075L42.9199 48.6075L42.8932 48.6075L42.8664 48.6075L42.8397 48.6075L42.8129 48.6075L42.7862 48.6075L42.7594 48.6075L42.7326 48.6075L42.7058 48.6075L42.679 48.6075L42.6522 48.6075L42.6254 48.6075L42.5985 48.6075L42.5717 48.6075L42.5448 48.6075L42.5179 48.6075L42.491 48.6075L42.4641 48.6075L42.4372 48.6075L42.4103 48.6075L42.3834 48.6075L42.3564 48.6075L42.3295 48.6075L42.3025 48.6075L42.2755 48.6075L42.2485 48.6075L42.2215 48.6075L42.1945 48.6075L42.1675 48.6075L42.1404 48.6075L42.1134 48.6075L42.0863 48.6075L42.0592 48.6075L42.0321 48.6075L42.005 48.6075L41.9779 48.6075L41.9508 48.6075L41.9236 48.6075L41.8965 48.6075L41.8693 48.6075L41.8421 48.6075L41.8149 48.6075L41.7877 48.6075L41.7604 48.6075L41.7332 48.6075L41.7059 48.6075L41.6787 48.6075L41.6514 48.6075L41.6241 48.6075L41.5968 48.6075L41.5694 48.6075L41.5421 48.6075L41.5147 48.6075L41.4873 48.6075L41.46 48.6075L41.4326 48.6075L41.4051 48.6075L41.3777 48.6075L41.3503 48.6075L41.3228 48.6075L41.2953 48.6075L41.2678 48.6075L41.2403 48.6075L41.2128 48.6075L41.1852 48.6075L41.1577 48.6075L41.1301 48.6075L41.1025 48.6075L41.0749 48.6075L41.0473 48.6075L41.0196 48.6075L40.992 48.6075L40.9643 48.6075L40.9366 48.6075L40.9089 48.6075L40.8812 48.6075L40.8535 48.6075L40.8257 48.6075L40.7979 48.6075L40.7701 48.6075L40.7423 48.6075L40.7145 48.6075L40.6867 48.6075L40.6588 48.6075L40.6309 48.6075L40.603 48.6075L40.5751 48.6075L40.5472 48.6075L40.5193 48.6075L40.4913 48.6075L40.4633 48.6075L40.4353 48.6075L40.4073 48.6075L40.3793 48.6075L40.3512 48.6075L40.3231 48.6075L40.295 48.6075L40.2669 48.6075L40.2388 48.6075L40.2107 48.6075L40.1825 48.6075L40.1543 48.6075L40.1261 48.6075L40.0979 48.6075L40.0696 48.6075L40.0414 48.6075L40.0131 48.6075L39.9848 48.6075L39.9565 48.6075L39.9281 48.6075L39.8998 48.6075L39.8714 48.6075L39.843 48.6075L39.8146 48.6075L39.7861 48.6075L39.7577 48.6075L39.7292 48.6075L39.7007 48.6075L39.6722 48.6075L39.6436 48.6075L39.6151 48.6075L39.5865 48.6075L39.5579 48.6075L39.5293 48.6075L39.5006 48.6075L39.472 48.6075L39.4433 48.6075L39.4146 48.6075L39.3858 48.6075L39.3571 48.6075L39.3283 48.6075L39.2995 48.6075L39.2707 48.6075L39.2419 48.6075L39.213 48.6075L39.1841 48.6075L39.1552 48.6075L39.1263 48.6075C31.5579 48.6075 25.4186 54.7429 25.4186 62.3111C25.4186 67.9663 30.003 72.5506 35.6581 72.5506Z" stroke="url(#paint2_linear_127_1206)" stroke-width="0.305948"/>
</g>
<defs>
<filter id="filter0_b_127_1206" x="27.332" y="14.3684" width="37.9453" height="37.9453" filterUnits="userSpaceOnUse" color-interpolation-filters="sRGB">
<feFlood flood-opacity="0" result="BackgroundImageFix"/>
<feGaussianBlur in="BackgroundImageFix" stdDeviation="3.16211"/>
<feComposite in2="SourceAlpha" operator="in" result="effect1_backgroundBlur_127_1206"/>
<feBlend mode="normal" in="SourceGraphic" in2="effect1_backgroundBlur_127_1206" result="shape"/>
</filter>
<filter id="filter1_b_127_1206" x="18.3373" y="41.5263" width="55.4269" height="38.1056" filterUnits="userSpaceOnUse" color-interpolation-filters="sRGB">
<feFlood flood-opacity="0" result="BackgroundImageFix"/>
<feGaussianBlur in="BackgroundImageFix" stdDeviation="3.46416"/>
<feComposite in2="SourceAlpha" operator="in" result="effect1_backgroundBlur_127_1206"/>
<feBlend mode="normal" in="SourceGraphic" in2="effect1_backgroundBlur_127_1206" result="shape"/>
</filter>
<linearGradient id="paint0_linear_127_1206" x1="36.1262" y1="41.7534" x2="60.5277" y2="61.3335" gradientUnits="userSpaceOnUse">
<stop stop-color="#917FFB"/>
<stop offset="1" stop-color="#3F2DAF"/>
</linearGradient>
<linearGradient id="paint1_linear_127_1206" x1="33.6563" y1="25.4358" x2="45.8106" y2="45.3979" gradientUnits="userSpaceOnUse">
<stop stop-color="white"/>
<stop offset="0.99715" stop-color="white" stop-opacity="0"/>
</linearGradient>
<linearGradient id="paint2_linear_127_1206" x1="27.2145" y1="50.6106" x2="68.2044" y2="69.5555" gradientUnits="userSpaceOnUse">
<stop stop-color="white"/>
<stop offset="1" stop-color="white" stop-opacity="0"/>
</linearGradient>
</defs>
</svg>
