<svg width="92" height="92" viewBox="0 0 92 92" fill="none" xmlns="http://www.w3.org/2000/svg">
<rect x="0.191406" width="91.7843" height="91.7843" rx="23.7043" transform="rotate(0.118781 0.191406 0)" fill="white"/>
<path fill-rule="evenodd" clip-rule="evenodd" d="M25.9414 25.5521C25.9414 24.3287 26.9332 23.3369 28.1566 23.3369L63.5997 23.3369C64.8231 23.3369 65.8148 24.3287 65.8148 25.5521C65.8148 26.7755 64.8231 27.7673 63.5997 27.7673L28.1566 27.7673C26.9332 27.7673 25.9414 26.7755 25.9414 25.5521Z" fill="url(#paint0_linear_127_1225)"/>
<g filter="url(#filter0_b_127_1225)">
<circle cx="54.7353" cy="25.5522" r="5.90718" fill="#BFB5FF" fill-opacity="0.6"/>
<circle cx="54.7353" cy="25.5522" r="5.7595" stroke="url(#paint1_linear_127_1225)" stroke-width="0.295359"/>
</g>
<g filter="url(#filter1_b_127_1225)">
<rect x="23.5" y="33.4248" width="43.867" height="34.4669" rx="9.40007" fill="url(#paint2_linear_127_1225)" fill-opacity="0.77"/>
<rect x="23.6468" y="33.5716" width="43.5733" height="34.1732" rx="9.25322" stroke="url(#paint3_linear_127_1225)" stroke-width="0.293685"/>
</g>
<rect x="51.6992" y="42.825" width="18.8001" height="12.5334" rx="6.26671" fill="url(#paint4_linear_127_1225)"/>
<g filter="url(#filter2_b_127_1225)">
<rect x="61.1016" y="45.958" width="6.26671" height="6.26671" rx="3.13336" transform="rotate(90 61.1016 45.958)" fill="white"/>
</g>
<defs>
<filter id="filter0_b_127_1225" x="42.9209" y="13.7378" width="23.6269" height="23.6288" filterUnits="userSpaceOnUse" color-interpolation-filters="sRGB">
<feFlood flood-opacity="0" result="BackgroundImageFix"/>
<feGaussianBlur in="BackgroundImageFix" stdDeviation="2.95359"/>
<feComposite in2="SourceAlpha" operator="in" result="effect1_backgroundBlur_127_1225"/>
<feBlend mode="normal" in="SourceGraphic" in2="effect1_backgroundBlur_127_1225" result="shape"/>
</filter>
<filter id="filter1_b_127_1225" x="17.2333" y="27.1581" width="56.4006" height="47.0002" filterUnits="userSpaceOnUse" color-interpolation-filters="sRGB">
<feFlood flood-opacity="0" result="BackgroundImageFix"/>
<feGaussianBlur in="BackgroundImageFix" stdDeviation="3.13336"/>
<feComposite in2="SourceAlpha" operator="in" result="effect1_backgroundBlur_127_1225"/>
<feBlend mode="normal" in="SourceGraphic" in2="effect1_backgroundBlur_127_1225" result="shape"/>
</filter>
<filter id="filter2_b_127_1225" x="48.5692" y="39.6913" width="18.7991" height="18.8" filterUnits="userSpaceOnUse" color-interpolation-filters="sRGB">
<feFlood flood-opacity="0" result="BackgroundImageFix"/>
<feGaussianBlur in="BackgroundImageFix" stdDeviation="3.13336"/>
<feComposite in2="SourceAlpha" operator="in" result="effect1_backgroundBlur_127_1225"/>
<feBlend mode="normal" in="SourceGraphic" in2="effect1_backgroundBlur_127_1225" result="shape"/>
</filter>
<linearGradient id="paint0_linear_127_1225" x1="37.4434" y1="24.3061" x2="40.6773" y2="34.3153" gradientUnits="userSpaceOnUse">
<stop stop-color="#917FFB"/>
<stop offset="1" stop-color="#3F2DAF"/>
</linearGradient>
<linearGradient id="paint1_linear_127_1225" x1="47.3513" y1="34.413" x2="59.1657" y2="21.1218" gradientUnits="userSpaceOnUse">
<stop stop-color="white"/>
<stop offset="1" stop-color="white" stop-opacity="0"/>
</linearGradient>
<linearGradient id="paint2_linear_127_1225" x1="45.4335" y1="33.4248" x2="45.4335" y2="67.8917" gradientUnits="userSpaceOnUse">
<stop stop-color="#A89AFF"/>
<stop offset="1" stop-color="#6957D6"/>
</linearGradient>
<linearGradient id="paint3_linear_127_1225" x1="20.3666" y1="36.5582" x2="75.2004" y2="72.5918" gradientUnits="userSpaceOnUse">
<stop stop-color="white"/>
<stop offset="1" stop-color="white" stop-opacity="0"/>
</linearGradient>
<linearGradient id="paint4_linear_127_1225" x1="57.1223" y1="45.5666" x2="69.8632" y2="52.1389" gradientUnits="userSpaceOnUse">
<stop stop-color="#917FFB"/>
<stop offset="1" stop-color="#3F2DAF"/>
</linearGradient>
</defs>
</svg>
